<svg width="1280" height="720" xmlns="http://www.w3.org/2000/svg" xmlns:xlink="http://www.w3.org/1999/xlink" overflow="hidden"><defs><clipPath id="clip0"><rect x="0" y="0" width="1280" height="720"/></clipPath><clipPath id="clip1"><rect x="543" y="569" width="147" height="146"/></clipPath><clipPath id="clip2"><rect x="543" y="569" width="147" height="146"/></clipPath><clipPath id="clip3"><rect x="543" y="569" width="147" height="146"/></clipPath></defs><g clip-path="url(#clip0)"><rect x="0" y="0" width="1280" height="720" fill="#FFFFFF"/><path d="M21 565 1175.62 565" stroke="#BFBFBF" stroke-width="4" stroke-miterlimit="8" stroke-dasharray="16 12" fill="none" fill-rule="evenodd"/><path d="M0 0 1010.62 7.85459" stroke="#000000" stroke-width="4" stroke-miterlimit="8" stroke-dasharray="16 12" fill="none" fill-rule="evenodd" transform="matrix(1 0 0 -1 76 379.855)"/><path d="M24 162 1178.62 162" stroke="#BFBFBF" stroke-width="4" stroke-miterlimit="8" stroke-dasharray="16 12" fill="none" fill-rule="evenodd"/><path d="M345.5 33.0001C345.5 24.4396 352.44 17.5001 361 17.5001 369.56 17.5001 376.5 24.4396 376.5 33.0001 376.5 41.5605 369.56 48.5001 361 48.5001 352.44 48.5001 345.5 41.5605 345.5 33.0001Z" stroke="#507E32" stroke-width="1.33333" stroke-miterlimit="8" fill="#70AD47" fill-rule="evenodd"/><path d="M390.5 33.0001C390.5 24.4396 397.664 17.5001 406.5 17.5001 415.337 17.5001 422.5 24.4396 422.5 33.0001 422.5 41.5605 415.337 48.5001 406.5 48.5001 397.664 48.5001 390.5 41.5605 390.5 33.0001Z" stroke="#507E32" stroke-width="1.33333" stroke-miterlimit="8" fill="#70AD47" fill-rule="evenodd"/><path d="M313.5 76.0001C313.5 67.4396 320.664 60.5001 329.5 60.5001 338.337 60.5001 345.5 67.4396 345.5 76.0001 345.5 84.5605 338.337 91.5001 329.5 91.5001 320.664 91.5001 313.5 84.5605 313.5 76.0001Z" stroke="#507E32" stroke-width="1.33333" stroke-miterlimit="8" fill="#70AD47" fill-rule="evenodd"/><path d="M367.5 76.0001C367.5 67.4396 374.44 60.5001 383 60.5001 391.56 60.5001 398.5 67.4396 398.5 76.0001 398.5 84.5605 391.56 91.5001 383 91.5001 374.44 91.5001 367.5 84.5605 367.5 76.0001Z" stroke="#507E32" stroke-width="1.33333" stroke-miterlimit="8" fill="#70AD47" fill-rule="evenodd"/><path d="M422.5 76.0001C422.5 67.4396 429.44 60.5001 438 60.5001 446.56 60.5001 453.5 67.4396 453.5 76.0001 453.5 84.5605 446.56 91.5001 438 91.5001 429.44 91.5001 422.5 84.5605 422.5 76.0001Z" stroke="#507E32" stroke-width="1.33333" stroke-miterlimit="8" fill="#70AD47" fill-rule="evenodd"/><path d="M265.5 148.333C265.5 144.559 268.559 141.5 272.333 141.5L493.667 141.5C497.441 141.5 500.5 144.559 500.5 148.333L500.5 175.667C500.5 179.441 497.441 182.5 493.667 182.5L272.333 182.5C268.559 182.5 265.5 179.441 265.5 175.667Z" stroke="#2F528F" stroke-width="1.33333" stroke-miterlimit="8" fill="#4472C4" fill-rule="evenodd"/><text fill="#FFFFFF" font-family="Calibri,Calibri_MSFontService,sans-serif" font-weight="400" font-size="24" transform="translate(306.016 169)">Ethernet Bridge</text><rect x="704.5" y="218.5" width="226" height="43" stroke="#AE5A21" stroke-width="1.33333" stroke-miterlimit="8" fill="#ED7D31"/><text fill="#FFFFFF" font-family="Calibri,Calibri_MSFontService,sans-serif" font-weight="400" font-size="24" transform="translate(757.689 247)">Parser <tspan font-size="24" x="66.4067" y="0">Node</tspan><tspan fill="#70AD47" font-style="italic" font-size="24" x="-734.898" y="-164">Network Devices</tspan><tspan fill="#FFC000" font-style="italic" font-size="24" x="-734.898" y="138">ROS</tspan></text><path d="M10-2 59.2661-2 59.2661 311.745 55.2661 311.745 55.2661 0 57.2661 2 10 2ZM12 6 0 0 12-6ZM63.2661 309.745 57.2661 321.745 51.2661 309.745Z" fill="#FFC000" transform="matrix(1.83697e-16 1 1 -1.83697e-16 383 182)"/><path d="M332.123 97.6653 343.859 135.265 342.586 135.662 330.85 98.0625ZM328.065 100.329 329.5 91.5001 335.702 97.9448ZM346.644 132.999 345.209 141.827 339.007 135.383Z" fill="#70AD47"/><path d="M384.167 96.1667 384.167 135.342 382.833 135.342 382.833 96.1667ZM379.5 97.5001 383.5 89.5001 387.5 97.5ZM387.5 134.009 383.5 142.009 379.5 134.009Z" fill="#70AD47"/><path d="M2.65366 6.152 14.3262 42.8987 13.0554 43.3024 1.3829 6.55565ZM-1.39036 8.83555 0 0 6.23422 6.41361ZM17.0994 40.6188 15.7091 49.4544 9.47486 43.0408Z" fill="#70AD47" transform="matrix(-1 0 0 1 438.209 91.5001)"/><path d="M360.504 56.1243 364.482 134.444 363.151 134.512 359.172 56.1919ZM355.911 57.6927 359.5 49.5001 363.901 57.2868ZM367.744 132.943 364.155 141.136 359.754 133.349Z" fill="#70AD47"/><path d="M0.896005 6.63976 3.63633 86.1143 2.30379 86.1603-0.436536 6.6857ZM-3.72194 8.13309 0 0 4.2733 7.85741ZM6.92173 84.6668 3.19979 92.7999-1.07351 84.9425Z" fill="#70AD47" transform="matrix(-1 0 0 1 406.7 48.5001)"/><path d="M930 238 991.564 238 991.564 242 930 242ZM989.564 234 1001.56 240 989.564 246Z" fill="#FFC000"/><text fill="#FFC000" font-family="Calibri,Calibri_MSFontService,sans-serif" font-weight="400" font-size="32" transform="translate(1013.24 242)">…</text><path d="M334.5 312.5C334.5 319.127 355.99 324.5 382.5 324.5 409.01 324.5 430.5 319.127 430.5 312.5L430.5 416.5C430.5 423.127 409.01 428.5 382.5 428.5 355.99 428.5 334.5 423.127 334.5 416.5Z" fill="#5B9BD5" fill-rule="evenodd"/><path d="M334.5 312.5C334.5 305.873 355.99 300.5 382.5 300.5 409.01 300.5 430.5 305.873 430.5 312.5 430.5 319.127 409.01 324.5 382.5 324.5 355.99 324.5 334.5 319.127 334.5 312.5Z" fill="#9DC3E6" fill-rule="evenodd"/><path d="M430.5 312.5C430.5 319.127 409.01 324.5 382.5 324.5 355.99 324.5 334.5 319.127 334.5 312.5 334.5 305.873 355.99 300.5 382.5 300.5 409.01 300.5 430.5 305.873 430.5 312.5L430.5 416.5C430.5 423.127 409.01 428.5 382.5 428.5 355.99 428.5 334.5 423.127 334.5 416.5L334.5 312.5" stroke="#41719C" stroke-width="1.33333" stroke-miterlimit="8" fill="none" fill-rule="evenodd"/><text fill="#FFFFFF" font-family="Calibri,Calibri_MSFontService,sans-serif" font-weight="400" font-size="24" transform="translate(362.456 363)">ROS<tspan font-size="24" x="2.04666" y="29">bag</tspan></text><path d="M1.99999-0.00547067 2.2624 95.9277-1.73758 95.9387-1.99999 0.00547067ZM6.25692 93.9169 0.289764 105.933-5.74304 93.9497Z" fill="#FFC000" transform="matrix(-1 0 0 1 382.29 189)"/><rect x="704.5" y="438.5" width="226" height="43" stroke="#AE5A21" stroke-width="1.33333" stroke-miterlimit="8" fill="#ED7D31"/><text fill="#FFFFFF" font-family="Calibri,Calibri_MSFontService,sans-serif" font-weight="400" font-size="24" transform="translate(757.689 467)">Parser <tspan font-size="24" x="66.4067" y="0">Node</tspan></text><path d="M930 458 991.564 458 991.564 462 930 462ZM989.564 454 1001.56 460 989.564 466Z" fill="#FFC000"/><text fill="#FFC000" font-family="Calibri,Calibri_MSFontService,sans-serif" font-weight="400" font-size="32" transform="translate(1013.24 462)">…</text><path d="M0-2 33.6878-2 33.6878 312.035 29.6878 312.035 29.6878 0 31.6878 2 0 2ZM37.6878 310.035 31.6878 322.035 25.6878 310.035Z" fill="#FFC000" transform="matrix(1.83697e-16 1 1 -1.83697e-16 382 428)"/><text font-family="Calibri,Calibri_MSFontService,sans-serif" font-style="italic" font-weight="400" font-size="24" transform="translate(81.2901 364)">Online Processing<tspan font-size="24" x="-0.000106812" y="40">Post Processing</tspan></text><rect x="704.5" y="486.5" width="226" height="44" stroke="#AE5A21" stroke-width="1.33333" stroke-miterlimit="8" fill="#ED7D31"/><text fill="#FFFFFF" font-family="Calibri,Calibri_MSFontService,sans-serif" font-weight="400" font-size="24" transform="translate(714.856 516)">Another<tspan font-size="24" x="85.6666" y="0">Parser</tspan><tspan font-size="24" x="152.073" y="0">Nod</tspan><tspan font-size="24" x="192.907" y="0">e</tspan></text><path d="M930 506 991.564 506 991.564 510 930 510ZM989.564 502 1001.56 508 989.564 514Z" fill="#FFC000"/><text fill="#FFC000" font-family="Calibri,Calibri_MSFontService,sans-serif" font-weight="400" font-size="32" transform="translate(1013.24 511)">…</text><path d="M0-2 50.3028-2 50.3028 37.9997 46.3028 37.9997 46.3028 0 48.3028 2 0 2ZM54.3028 35.9997 48.3028 47.9997 42.3028 35.9997Z" fill="#FFC000" transform="matrix(1.83697e-16 1 1 -1.83697e-16 656 460)"/><path d="M264.5 490.334C264.5 486.56 267.56 483.5 271.334 483.5L493.667 483.5C497.441 483.5 500.5 486.56 500.5 490.334L500.5 517.667C500.5 521.441 497.441 524.5 493.667 524.5L271.334 524.5C267.56 524.5 264.5 521.441 264.5 517.667Z" stroke="#2F528F" stroke-width="1.33333" stroke-miterlimit="8" fill="#4472C4" fill-rule="evenodd"/><text fill="#FFFFFF" font-family="Calibri,Calibri_MSFontService,sans-serif" font-weight="400" font-size="24" transform="translate(285.852 512)">Ethernet Redirector</text><path d="M264.5 551.334C264.5 547.56 267.56 544.5 271.334 544.5L493.667 544.5C497.441 544.5 500.5 547.56 500.5 551.334L500.5 578.667C500.5 582.441 497.441 585.5 493.667 585.5L271.334 585.5C267.56 585.5 264.5 582.441 264.5 578.667Z" stroke="#2F528F" stroke-width="1.33333" stroke-miterlimit="8" fill="#4472C4" fill-rule="evenodd"/><text fill="#FFFFFF" font-family="Calibri,Calibri_MSFontService,sans-serif" font-weight="400" font-size="24" transform="translate(305.386 572)">Ethernet Bridge</text><path d="M1.99996-0.0122652 2.2789 45.471-1.72103 45.4955-1.99996 0.0122652ZM6.26656 43.4465 0.340262 55.483-5.73322 43.5201Z" fill="#FFC000" transform="matrix(-1 0 0 1 382.34 428)"/><path d="M384 524 384 533.705 380 533.705 380 524ZM388 531.705 382 543.705 376 531.705Z" fill="#FFC000"/><text fill="#7030A0" font-family="Calibri,Calibri_MSFontService,sans-serif" font-style="italic" font-weight="400" font-size="24" transform="translate(22.791 646)">Third-<tspan font-size="24" x="57.3333" y="0">Party Software</tspan></text><g clip-path="url(#clip1)"><g clip-path="url(#clip2)"><g clip-path="url(#clip3)"><path d="M115.583 91.25 30.4167 91.25 30.4167 39.5417 115.583 39.5417 115.583 91.25ZM124.708 36.5C124.708 33.1542 121.971 30.4167 118.625 30.4167L27.375 30.4167C24.0292 30.4167 21.2917 33.1542 21.2917 36.5L21.2917 100.375 124.708 100.375 124.708 36.5Z" fill="#7030A0" transform="matrix(1.00685 0 0 1 543 569)"/><path d="M82.125 106.458 82.125 107.979C82.125 108.892 81.5167 109.5 80.6042 109.5L65.3958 109.5C64.4833 109.5 63.875 108.892 63.875 107.979L63.875 106.458 3.04167 106.458 3.04167 109.5C3.04167 112.846 5.77917 115.583 9.125 115.583L136.875 115.583C140.221 115.583 142.958 112.846 142.958 109.5L142.958 106.458 82.125 106.458Z" fill="#7030A0" transform="matrix(1.00685 0 0 1 543 569)"/></g></g></g><path d="M0-2 59.0792-2 59.0792 151.358 55.0792 151.358 55.0792 0 57.0792 2 0 2ZM63.0792 149.358 57.0792 161.358 51.0792 149.358Z" fill="#7030A0" transform="matrix(1.83697e-16 1 1 -1.83697e-16 382 585)"/></g></svg>