<svg width="1280" height="720" xmlns="http://www.w3.org/2000/svg" xmlns:xlink="http://www.w3.org/1999/xlink" overflow="hidden"><defs><clipPath id="clip0"><rect x="0" y="0" width="1280" height="720"/></clipPath></defs><g clip-path="url(#clip0)"><rect x="0" y="0" width="1280" height="720" fill="#FFFFFF"/><rect x="608.5" y="300.5" width="175" height="88" stroke="#ED7D31" stroke-width="1.33333" stroke-miterlimit="8" stroke-dasharray="5.33333 4" fill="none"/><rect x="746" y="212" width="68" height="244" fill="#FFFFFF"/><rect x="221.5" y="298.5" width="199" height="89" stroke="#ED7D31" stroke-width="1.33333" stroke-miterlimit="8" stroke-dasharray="5.33333 4" fill="none"/><path d="M106 298 106 382.654" stroke="#000000" stroke-width="4" stroke-miterlimit="8" fill="none" fill-rule="evenodd"/><path d="M3.23816e-07-2 638.436-1.9999 638.436 2.0001-3.23816e-07 2ZM636.436-5.9999 648.436 0.000104987 636.436 6.0001Z" transform="matrix(1 0 0 -1 106 341)"/><path d="M231.5 319.5 231.5 367.064" stroke="#5B9BD5" stroke-width="3" stroke-miterlimit="8" fill="none" fill-rule="evenodd"/><path d="M239.5 319.5 239.5 367.064" stroke="#5B9BD5" stroke-width="3" stroke-miterlimit="8" fill="none" fill-rule="evenodd"/><path d="M247.5 319.5 247.5 367.064" stroke="#5B9BD5" stroke-width="3" stroke-miterlimit="8" fill="none" fill-rule="evenodd"/><path d="M255.5 319.5 255.5 367.064" stroke="#5B9BD5" stroke-width="3" stroke-miterlimit="8" fill="none" fill-rule="evenodd"/><path d="M264.5 319.5 264.5 367.064" stroke="#5B9BD5" stroke-width="3" stroke-miterlimit="8" fill="none" fill-rule="evenodd"/><path d="M272.5 319.5 272.5 367.064" stroke="#5B9BD5" stroke-width="3" stroke-miterlimit="8" fill="none" fill-rule="evenodd"/><path d="M280.5 319.5 280.5 367.064" stroke="#5B9BD5" stroke-width="3" stroke-miterlimit="8" fill="none" fill-rule="evenodd"/><path d="M288.5 319.5 288.5 367.064" stroke="#5B9BD5" stroke-width="3" stroke-miterlimit="8" fill="none" fill-rule="evenodd"/><path d="M297.5 319.5 297.5 367.064" stroke="#5B9BD5" stroke-width="3" stroke-miterlimit="8" fill="none" fill-rule="evenodd"/><path d="M305.5 319.5 305.5 367.064" stroke="#5B9BD5" stroke-width="3" stroke-miterlimit="8" fill="none" fill-rule="evenodd"/><path d="M313.5 319.5 313.5 367.064" stroke="#5B9BD5" stroke-width="3" stroke-miterlimit="8" fill="none" fill-rule="evenodd"/><path d="M321.5 319.5 321.5 367.064" stroke="#5B9BD5" stroke-width="3" stroke-miterlimit="8" fill="none" fill-rule="evenodd"/><path d="M329.5 319.5 329.5 367.064" stroke="#5B9BD5" stroke-width="3" stroke-miterlimit="8" fill="none" fill-rule="evenodd"/><path d="M337.5 319.5 337.5 367.064" stroke="#5B9BD5" stroke-width="3" stroke-miterlimit="8" fill="none" fill-rule="evenodd"/><path d="M345.5 319.5 345.5 367.064" stroke="#5B9BD5" stroke-width="3" stroke-miterlimit="8" fill="none" fill-rule="evenodd"/><path d="M353.5 319.5 353.5 367.064" stroke="#5B9BD5" stroke-width="3" stroke-miterlimit="8" fill="none" fill-rule="evenodd"/><path d="M362.5 319.5 362.5 367.064" stroke="#5B9BD5" stroke-width="3" stroke-miterlimit="8" fill="none" fill-rule="evenodd"/><path d="M370.5 319.5 370.5 367.064" stroke="#5B9BD5" stroke-width="3" stroke-miterlimit="8" fill="none" fill-rule="evenodd"/><path d="M378.5 319.5 378.5 367.064" stroke="#5B9BD5" stroke-width="3" stroke-miterlimit="8" fill="none" fill-rule="evenodd"/><path d="M385.5 319.5 385.5 367.064" stroke="#5B9BD5" stroke-width="3" stroke-miterlimit="8" fill="none" fill-rule="evenodd"/><path d="M413.5 324.5 428.5 324.5 421 342.5 428.5 360.5 413.5 360.5 421 342.5Z" stroke="#AE5A21" stroke-width="1.33333" stroke-miterlimit="8" fill="#ED7D31" fill-rule="evenodd"/><path d="M231.5 268.5C231.5 258.559 232.843 250.5 234.5 250.5L306.372 250.5C308.029 250.5 309.372 242.441 309.372 232.5 309.372 242.441 310.715 250.5 312.371 250.5L382.5 250.5C384.157 250.5 385.5 258.559 385.5 268.5" stroke="#4472C4" stroke-width="0.666667" stroke-miterlimit="8" fill="none" fill-rule="evenodd"/><text font-family="Calibri,Calibri_MSFontService,sans-serif" font-weight="400" font-size="24" transform="translate(226.135 217)">fragmented<tspan font-size="24" x="119.527" y="0">data</tspan></text><path d="M221.5 177.5C221.5 167.559 222.843 159.5 224.5 159.5L318.115 159.5C319.772 159.5 321.115 151.441 321.115 141.5 321.115 151.441 322.458 159.5 324.115 159.5L415.5 159.5C417.157 159.5 418.5 167.559 418.5 177.5" stroke="#ED7D31" stroke-width="0.666667" stroke-miterlimit="8" fill="none" fill-rule="evenodd"/><text font-family="Calibri,Calibri_MSFontService,sans-serif" font-weight="400" font-size="24" transform="translate(203.959 130)">ethernet_msgs<tspan font-size="24" x="146.58" y="0">/</tspan><tspan font-size="24" x="155.913" y="0">Packets</tspan></text><path d="M385.5 415.167 413.887 415.167 413.887 415.833 385.5 415.833ZM412.554 411.5 420.554 415.5 412.554 419.5Z" fill="#7030A0"/><text fill="#7030A0" font-family="Calibri,Calibri_MSFontService,sans-serif" font-style="italic" font-weight="400" font-size="24" transform="translate(317.333 443)">maximum <tspan font-size="24" x="103" y="0">idle</tspan><tspan font-size="24" x="143.333" y="0">time</tspan></text><path d="M231.5 466.167 414.069 466.167 414.069 466.833 231.5 466.833ZM412.736 462.5 420.736 466.5 412.736 470.5Z" fill="#70AD47"/><text fill="#70AD47" font-family="Calibri,Calibri_MSFontService,sans-serif" font-style="italic" font-weight="400" font-size="24" transform="translate(220.407 491)">maximum packet <tspan font-size="24" x="172.573" y="0">age</tspan><tspan fill="#000000" font-style="normal" font-weight="700" font-size="24" x="536.617" y="-144">t</tspan><tspan fill="#ED7D31" font-style="normal" font-size="24" x="215.265" y="-166">trigger</tspan></text><path d="M616.5 318.5 616.5 366.064" stroke="#5B9BD5" stroke-width="3" stroke-miterlimit="8" fill="none" fill-rule="evenodd"/><path d="M624.5 318.5 624.5 366.064" stroke="#5B9BD5" stroke-width="3" stroke-miterlimit="8" fill="none" fill-rule="evenodd"/><path d="M632.5 318.5 632.5 366.064" stroke="#5B9BD5" stroke-width="3" stroke-miterlimit="8" fill="none" fill-rule="evenodd"/><path d="M640.5 318.5 640.5 366.064" stroke="#5B9BD5" stroke-width="3" stroke-miterlimit="8" fill="none" fill-rule="evenodd"/><path d="M648.5 318.5 648.5 366.064" stroke="#5B9BD5" stroke-width="3" stroke-miterlimit="8" fill="none" fill-rule="evenodd"/><path d="M656.5 318.5 656.5 366.064" stroke="#5B9BD5" stroke-width="3" stroke-miterlimit="8" fill="none" fill-rule="evenodd"/><path d="M664.5 318.5 664.5 366.064" stroke="#5B9BD5" stroke-width="3" stroke-miterlimit="8" fill="none" fill-rule="evenodd"/><path d="M671.5 318.5 671.5 366.064" stroke="#5B9BD5" stroke-width="3" stroke-miterlimit="8" fill="none" fill-rule="evenodd"/><path d="M679.5 318.5 679.5 366.064" stroke="#5B9BD5" stroke-width="3" stroke-miterlimit="8" fill="none" fill-rule="evenodd"/><path d="M688.5 318.5 688.5 366.064" stroke="#5B9BD5" stroke-width="3" stroke-miterlimit="8" fill="none" fill-rule="evenodd"/><path d="M695.5 318.5 695.5 366.064" stroke="#5B9BD5" stroke-width="3" stroke-miterlimit="8" fill="none" fill-rule="evenodd"/><path d="M703.5 318.5 703.5 366.064" stroke="#5B9BD5" stroke-width="3" stroke-miterlimit="8" fill="none" fill-rule="evenodd"/><path d="M711.5 318.5 711.5 366.064" stroke="#5B9BD5" stroke-width="3" stroke-miterlimit="8" fill="none" fill-rule="evenodd"/><path d="M719.5 318.5 719.5 366.064" stroke="#5B9BD5" stroke-width="3" stroke-miterlimit="8" fill="none" fill-rule="evenodd"/><path d="M727.5 318.5 727.5 366.064" stroke="#5B9BD5" stroke-width="3" stroke-miterlimit="8" fill="none" fill-rule="evenodd"/><path d="M735.5 318.5 735.5 366.064" stroke="#5B9BD5" stroke-width="3" stroke-miterlimit="8" fill="none" fill-rule="evenodd"/><path d="M231.5 531.167 385.682 531.167 385.682 531.833 231.5 531.833ZM231.5 535.5C229.291 535.5 227.5 533.709 227.5 531.5 227.5 529.291 229.291 527.5 231.5 527.5 233.709 527.5 235.5 529.291 235.5 531.5 235.5 533.709 233.709 535.5 231.5 535.5ZM385.682 527.5C387.891 527.5 389.682 529.291 389.682 531.5 389.682 533.709 387.891 535.5 385.682 535.5 383.473 535.5 381.682 533.709 381.682 531.5 381.682 529.291 383.473 527.5 385.682 527.5Z" fill="#4472C4"/><text fill="#4472C4" font-family="Calibri,Calibri_MSFontService,sans-serif" font-style="italic" font-weight="400" font-size="24" transform="translate(216.891 557)">number<tspan font-size="24" x="81.1667" y="0">of</tspan><tspan font-size="24" x="106.333" y="0">packets</tspan></text><path d="M236 531C236 528.791 237.791 527 240 527 242.209 527 244 528.791 244 531 244 533.209 242.209 535 240 535 237.791 535 236 533.209 236 531Z" fill="#4472C4" fill-rule="evenodd"/><path d="M245 531C245 528.791 246.791 527 249 527 251.209 527 253 528.791 253 531 253 533.209 251.209 535 249 535 246.791 535 245 533.209 245 531Z" fill="#4472C4" fill-rule="evenodd"/><path d="M254 530.5C254 528.567 255.567 527 257.5 527 259.433 527 261 528.567 261 530.5 261 532.433 259.433 534 257.5 534 255.567 534 254 532.433 254 530.5Z" fill="#4472C4" fill-rule="evenodd"/><path d="M262 531C262 528.791 263.791 527 266 527 268.209 527 270 528.791 270 531 270 533.209 268.209 535 266 535 263.791 535 262 533.209 262 531Z" fill="#4472C4" fill-rule="evenodd"/><path d="M271 531C271 528.791 272.791 527 275 527 277.209 527 279 528.791 279 531 279 533.209 277.209 535 275 535 272.791 535 271 533.209 271 531Z" fill="#4472C4" fill-rule="evenodd"/><path d="M280 530.5C280 528.567 281.567 527 283.5 527 285.433 527 287 528.567 287 530.5 287 532.433 285.433 534 283.5 534 281.567 534 280 532.433 280 530.5Z" fill="#4472C4" fill-rule="evenodd"/><path d="M288 531C288 528.791 289.791 527 292 527 294.209 527 296 528.791 296 531 296 533.209 294.209 535 292 535 289.791 535 288 533.209 288 531Z" fill="#4472C4" fill-rule="evenodd"/><path d="M297 531C297 528.791 298.791 527 301 527 303.209 527 305 528.791 305 531 305 533.209 303.209 535 301 535 298.791 535 297 533.209 297 531Z" fill="#4472C4" fill-rule="evenodd"/><path d="M306 530.5C306 528.567 307.567 527 309.5 527 311.433 527 313 528.567 313 530.5 313 532.433 311.433 534 309.5 534 307.567 534 306 532.433 306 530.5Z" fill="#4472C4" fill-rule="evenodd"/><path d="M314 531C314 528.791 315.567 527 317.5 527 319.433 527 321 528.791 321 531 321 533.209 319.433 535 317.5 535 315.567 535 314 533.209 314 531Z" fill="#4472C4" fill-rule="evenodd"/><path d="M323 531C323 528.791 324.567 527 326.5 527 328.433 527 330 528.791 330 531 330 533.209 328.433 535 326.5 535 324.567 535 323 533.209 323 531Z" fill="#4472C4" fill-rule="evenodd"/><path d="M331 530.5C331 528.567 332.791 527 335 527 337.209 527 339 528.567 339 530.5 339 532.433 337.209 534 335 534 332.791 534 331 532.433 331 530.5Z" fill="#4472C4" fill-rule="evenodd"/><path d="M340 531C340 528.791 341.567 527 343.5 527 345.433 527 347 528.791 347 531 347 533.209 345.433 535 343.5 535 341.567 535 340 533.209 340 531Z" fill="#4472C4" fill-rule="evenodd"/><path d="M349 531C349 528.791 350.567 527 352.5 527 354.433 527 356 528.791 356 531 356 533.209 354.433 535 352.5 535 350.567 535 349 533.209 349 531Z" fill="#4472C4" fill-rule="evenodd"/><path d="M357 530.5C357 528.567 358.791 527 361 527 363.209 527 365 528.567 365 530.5 365 532.433 363.209 534 361 534 358.791 534 357 532.433 357 530.5Z" fill="#4472C4" fill-rule="evenodd"/><path d="M365 531C365 528.791 366.791 527 369 527 371.209 527 373 528.791 373 531 373 533.209 371.209 535 369 535 366.791 535 365 533.209 365 531Z" fill="#4472C4" fill-rule="evenodd"/><path d="M373 531C373 528.791 374.791 527 377 527 379.209 527 381 528.791 381 531 381 533.209 379.209 535 377 535 374.791 535 373 533.209 373 531Z" fill="#4472C4" fill-rule="evenodd"/></g></svg>